# xmcd
#
# Track frame offsets: 
#        150
#        12152
#        21955
#        36097
#        50262
#        60920
#        77795
#        94052
#        108995
#        123267
#
# Disc length: 1815 seconds
#
# Revision: 2
# Processed by: cddbd v1.5.2PL0 Copyright (c) Steve Scherf et al.
# Submitted via: ExactAudioCopy v1.0b3
#
DISCID=6f07150a
DTITLE=Asleep at the Wheel - 10 (1987 CBS)
DYEAR=1987
DGENRE=Western Swing
TTITLE0=Way Down Texas Way
TTITLE1=Tulsa Straight Ahead
TTITLE2=Coast to Coast
TTITLE3=House of Blue Lights
TTITLE4=Blowin' Like a Bandit
TTITLE5=I Want a New Drug
TTITLE6=Big Foot Stomp
TTITLE7=Boogie Back to Texas
TTITLE8=String of Pars
TTITLE9=Blues Stay Away From Me
EXTD=
EXTT0=
EXTT1=
EXTT2=
EXTT3=
EXTT4=
EXTT5=
EXTT6=
EXTT7=
EXTT8=
EXTT9=
PLAYORDER=
